<svg width="24" height="24" viewBox="0 0 24 24" fill="none" xmlns="http://www.w3.org/2000/svg">
<path fill-rule="evenodd" clip-rule="evenodd" d="M12.0084 1C13.2315 1 14.3264 1.63994 14.9331 2.71176L23.5503 17.9107C24.1535 18.974 24.1499 20.243 23.5395 21.304C22.9291 22.3661 21.8391 23 20.6244 23H3.37685C2.1609 23 1.07087 22.3661 0.460493 21.304C-0.149879 20.243 -0.153476 18.974 0.449701 17.9107L9.08365 2.70934C9.69042 1.63873 10.7829 1 12.0072 1H12.0084ZM12.0072 2.81458C11.4364 2.81458 10.928 3.11217 10.6426 3.61179L2.01101 18.8119C1.7304 19.3079 1.7328 19.8995 2.017 20.3943C2.3012 20.889 2.80965 21.1854 3.37685 21.1854H20.6244C21.1904 21.1854 21.6988 20.889 21.983 20.3943C22.2684 19.8995 22.2708 19.3079 21.9878 18.8119L13.3718 3.61179C13.0876 3.11217 12.5792 2.81458 12.0072 2.81458ZM11.999 16.1203C12.6622 16.1203 13.1982 16.6611 13.1982 17.33C13.1982 17.999 12.6622 18.5398 11.999 18.5398C11.3359 18.5398 10.7939 17.999 10.7939 17.33C10.7939 16.6611 11.3251 16.1203 11.9871 16.1203H11.999ZM11.9966 8.94061C12.4931 8.94061 12.896 9.34708 12.896 9.8479V13.598C12.896 14.0989 12.4931 14.5053 11.9966 14.5053C11.5002 14.5053 11.0973 14.0989 11.0973 13.598V9.8479C11.0973 9.34708 11.5002 8.94061 11.9966 8.94061Z" fill="white"/>
</svg>
